<svg version="1.1" xmlns="http://www.w3.org/2000/svg" xmlns:xlink="http://www.w3.org/1999/xlink" width="496px" height="512px" viewBox="0,0,248,256"><g fill="#ffffff" fill-rule="nonzero" stroke="none" stroke-width="1" stroke-linecap="butt" stroke-linejoin="miter" stroke-miterlimit="10" stroke-dasharray="" stroke-dashoffset="0" font-family="none" font-weight="none" font-size="none" text-anchor="none" style="mix-blend-mode: normal"><g transform="scale(0.5,0.5)"><path d="M248,8c-136.967,0 -248,111.033 -248,248c0,136.967 111.033,248 248,248c136.967,0 248,-111.033 248,-248c0,-136.967 -111.033,-248 -248,-248zM362.952,176.66c-3.732,39.215 -19.881,134.378 -28.1,178.3c-3.476,18.584 -10.322,24.816 -16.948,25.425c-14.4,1.326 -25.338,-9.517 -39.287,-18.661c-21.827,-14.308 -34.158,-23.215 -55.346,-37.177c-24.485,-16.135 -8.612,-25 5.342,-39.5c3.652,-3.793 67.107,-61.51 68.335,-66.746c0.153,-0.655 0.3,-3.1 -1.154,-4.384c-1.454,-1.284 -3.59,-0.849 -5.135,-0.5c-2.18867,0.49733 -37.058,23.54467 -104.608,69.142c-9.89667,6.796 -18.86133,10.10733 -26.894,9.934c-8.855,-0.191 -25.888,-5.006 -38.551,-9.123c-15.531,-5.048 -27.875,-7.717 -26.8,-16.291c0.56,-4.46667 6.71,-9.03333 18.45,-13.7c72.29733,-31.49867 120.50667,-52.26533 144.628,-62.3c68.872,-28.647 83.183,-33.623 92.511,-33.789c2.052,-0.034 6.639,0.474 9.61,2.885c1.97635,1.71749 3.23609,4.11421 3.53,6.716c0.50347,3.23053 0.64334,6.50731 0.417,9.769z"></path></g></g></svg>